<?xml version="1.0" encoding="UTF-8"?>
<svg version="1.1" xmlns="http://www.w3.org/2000/svg" width="1494" height="1512">
<path d="M0 0 C2.51929386 1.49356875 5.04876375 2.96728844 7.58398438 4.43359375 C36.8194474 21.47735147 64.64068298 41.21511894 91.43261719 61.84130859 C93.49217449 63.42548487 95.55602991 65.0037045 97.62304688 66.578125 C103.54647969 71.09621442 109.37805539 75.70978189 115.12304688 80.453125 C116.87137649 81.89639417 118.62640548 83.3315939 120.38867188 84.7578125 C131.07554585 93.4113432 141.42984806 102.45856511 151.61523438 111.6953125 C153.54758418 113.4365126 155.50368868 115.14266204 157.47460938 116.83984375 C167.12860866 125.26266498 176.35820915 134.1479899 185.36132812 143.2578125 C188.12432025 145.98521052 191.00925481 148.52102649 193.95507812 151.046875 C198.24418786 154.80556179 202.15575838 158.87456883 205.84960938 163.21484375 C209.3010561 167.22979198 213.02673788 170.93073897 216.78710938 174.65234375 C221.00328442 178.82965751 225.12271985 183.00920158 228.95898438 187.54296875 C230.94892414 189.8390531 233.01015165 192.05599176 235.08422852 194.27587891 C240.15993275 199.70891649 244.99386938 205.2489397 249.65039062 211.05078125 C251.74593431 213.60221104 253.92674092 216.03561148 256.16210938 218.46484375 C260.20231581 222.89784803 263.89343974 227.534759 267.56225586 232.27319336 C270.68053159 236.28657476 273.90613301 240.17862609 277.22460938 244.02734375 C282.85334459 250.59320244 288.00142539 257.4782873 293.13769531 264.43212891 C294.8744664 266.76993178 296.62923657 269.09327463 298.38867188 271.4140625 C320.76222886 300.95042948 341.77174672 331.84249594 360.78710938 363.65234375 C361.30740723 364.51859375 361.82770508 365.38484375 362.36376953 366.27734375 C366.21991825 372.70772292 370.02209426 379.16821477 373.78710938 385.65234375 C374.551604 386.9686377 374.551604 386.9686377 375.33154297 388.31152344 C418.86084402 463.58817619 453.7051101 544.15927355 498.52282715 746.3737793 C498.77179831 748.52033623 499.03075556 750.66545396 499.29199219 752.81054688 C501.90204523 774.65840081 502.0982473 796.56763631 502.15502548 818.54263306 C502.1619562 820.79017147 502.17360339 823.03764319 502.18618774 825.28515625 C502.61574851 914.25824897 481.79900961 1002.97585038 403.78710938 1122.65234375 C403.0997168 1123.54808105 403.0997168 1123.54808105 402.3984375 1124.46191406 C392.31457583 1137.58523758 381.52142646 1150.00120624 370.23095703 1162.09521484 C368.83554861 1163.60010407 367.45504966 1165.11706216 366.08007812 1166.640625 C357.1817602 1176.47697937 348.03419788 1186.24615348 337.89648438 1194.82421875 C335.6009163 1196.81371108 333.38441778 1198.87435885 331.1652832 1200.94824219 C325.86793209 1205.89600638 320.49169592 1210.65769703 314.83398438 1215.1953125 C312.53182279 1217.05179921 310.25528597 1218.92729999 307.99023438 1220.828125 C271.70346826 1251.21173972 231.46406133 1276.3911309 189.78710938 1298.65234375 C188.90039551 1299.12994141 188.01368164 1299.60753906 187.10009766 1300.09960938 C149.77679519 1320.1701355 110.77537896 1336.68608261 70.78710938 1350.65234375 C70.10622253 1350.8906189 69.42533569 1351.12889404 68.72381592 1351.37438965 C-11.4928964 1379.38848745 -95.36331369 1396.59865439 -209.21289062 1405.65234375 C-209.99483795 1405.70073395 -210.77678528 1405.74912415 -211.58242798 1405.79898071 C-230.13155784 1406.91554664 -248.70040404 1406.85333202 -267.27539062 1406.83984375 C-268.50989393 1406.83944344 -268.50989393 1406.83944344 -269.7693367 1406.83903503 C-293.22977804 1406.82948499 -316.63783505 1406.79758484 -340.03167725 1404.83270264 C-342.37741412 1404.63873973 -344.72392589 1404.45748303 -347.07080078 1404.27783203 C-431.53307569 1397.74321485 -515.74605776 1380.98855138 -644.21289062 1329.65234375 C-645.21497559 1329.19118164 -646.21706055 1328.73001953 -647.24951172 1328.25488281 C-687.94714213 1309.43231224 -726.58857678 1285.87582782 -762.21289062 1258.65234375 C-763.16808594 1257.9245874 -763.16808594 1257.9245874 -764.14257812 1257.18212891 C-775.7729847 1248.28449983 -786.88208971 1238.77395974 -797.71069336 1228.91918945 C-799.27778965 1227.49949104 -800.85178891 1226.08733453 -802.43579102 1224.68652344 C-808.78972479 1219.05378899 -814.84735849 1213.17268931 -820.83666992 1207.15893555 C-822.40561423 1205.5846022 -823.97987621 1204.01572786 -825.5546875 1202.44726562 C-830.98464081 1197.02121038 -836.24609976 1191.50992218 -841.21289062 1185.65234375 C-842.16182569 1184.56892152 -843.11229515 1183.48684089 -844.06445312 1182.40625 C-851.24896401 1174.16956583 -857.98043446 1165.647542 -864.52880859 1156.8984375 C-866.22802272 1154.63216177 -867.9408753 1152.3766394 -869.65429688 1150.12109375 C-886.90659757 1127.24771848 -901.82555622 1102.53555364 -914.22070312 1076.70166016 C-915.28093248 1074.51180651 -916.37094827 1072.33826361 -917.46289062 1070.1640625 C-925.43669553 1054.09477712 -931.9065923 1037.42899198 -938.21289062 1020.65234375 C-938.47197205 1019.96315857 -938.73105347 1019.27397339 -938.99798584 1018.56390381 C-965.31426634 948.30591344 -980.95088738 874.32580786 -988.52539062 799.77734375 C-988.60084106 799.04725098 -988.6762915 798.3171582 -988.75402832 797.56494141 C-989.32595731 791.9335419 -989.7908658 786.29684587 -990.21289062 780.65234375 C-990.34209396 778.9345874 -990.34209396 778.9345874 -990.47390747 777.18212891 C-992.16901916 753.85230021 -992.57820105 730.5850022 -992.53094864 707.19880295 C-992.52529741 704.35544529 -992.52248374 701.51209361 -992.51986694 698.66873169 C-992.4834581 671.43936401 -992.14986989 644.33597303 -989.46612549 617.21630859 C-989.20096431 614.53159164 -988.94650783 611.84598491 -988.69287109 609.16015625 C-979.98477482 518.12647764 -959.53216353 427.85242803 -902.21289062 286.65234375 C-901.90887329 286.00519409 -901.60485596 285.35804443 -901.29162598 284.69128418 C-871.53211679 221.46233597 -835.09101125 161.36286046 -790.21289062 107.65234375 C-789.78943359 107.14396973 -789.36597656 106.6355957 -788.9296875 106.11181641 C-783.25847612 99.31248276 -777.47049893 92.65629807 -771.47851562 86.13671875 C-769.51618153 83.98491792 -767.60642526 81.80191692 -765.71289062 79.58984375 C-762.20769393 75.54729378 -758.40685146 71.83024233 -754.59960938 68.07421875 C-752.63071561 66.07632328 -750.81600014 64.0565989 -749.02539062 61.90234375 C-743.92775286 55.9570894 -737.99088265 50.81259775 -732.234375 45.52099609 C-730.24063626 43.67799171 -728.26328563 41.8190665 -726.29101562 39.953125 C-720.00644631 34.01380036 -713.68891833 28.23604473 -706.92382812 22.83984375 C-704.49984429 20.88389138 -702.13994949 18.86927083 -699.78857422 16.82714844 C-690.99849543 9.22742119 -681.6339408 2.44227229 -672.21289062 -4.34765625 C-671.50116699 -4.86473145 -670.78944336 -5.38180664 -670.05615234 -5.91455078 C-595.8653766 -59.76467423 -507.68241998 -94.87668407 -416.21289062 -103.34765625 C-415.12169922 -103.45062012 -414.03050781 -103.55358398 -412.90625 -103.65966797 C-335.64852066 -110.62607006 -257.13149694 -100.38548535 0 0 Z M-494.21289062 2.65234375 C-495.66091064 3.11181396 -495.66091064 3.11181396 -497.13818359 3.58056641 C-552.35977583 21.27403485 -602.97842343 51.442234 -647.21289062 88.65234375 C-647.74446777 89.09900391 -648.27604492 89.54566406 -648.82373047 90.00585938 C-650.5825093 91.48746389 -652.33607539 92.97501387 -654.08789062 94.46484375 C-654.86265747 95.12045288 -654.86265747 95.12045288 -655.65307617 95.78930664 C-666.48514988 105.06528327 -676.71035558 114.98405729 -686.77197266 125.08105469 C-688.60400058 126.91850135 -690.44139668 128.75046025 -692.27929688 130.58203125 C-698.13744254 136.4364735 -703.87225688 142.31540193 -709.21289062 148.65234375 C-710.29288426 149.89110233 -711.37493279 151.12807226 -712.45898438 152.36328125 C-718.54211603 159.3372677 -724.5147488 166.35791396 -730.21289062 173.65234375 C-731.25941887 174.96772387 -732.30632895 176.28280025 -733.35351562 177.59765625 C-740.70613831 186.88197877 -747.58747924 196.38167311 -754.19726562 206.20703125 C-756.40454873 209.4845544 -758.67514494 212.70105499 -761.01171875 215.88720703 C-781.6097621 244.0127467 -798.22107073 275.64580905 -813.91436768 306.70483398 C-814.6530197 308.16582543 -815.39401615 309.62563401 -816.13739014 311.08422852 C-817.17744832 313.12888237 -818.20651443 315.17868577 -819.23242188 317.23046875 C-819.54944565 317.85024597 -819.86646942 318.47002319 -820.19309998 319.10858154 C-820.92803716 320.59422152 -821.57924576 322.12075863 -822.21289062 323.65234375 C-821.88289062 324.31234375 -821.55289063 324.97234375 -821.21289062 325.65234375 C-820.66314575 324.89896729 -820.66314575 324.89896729 -820.10229492 324.13037109 C-812.32421863 313.48541065 -804.46925316 302.93154356 -796.21289062 292.65234375 C-795.7040332 292.01731934 -795.19517578 291.38229492 -794.67089844 290.72802734 C-784.4542706 277.99916488 -773.99411551 265.52392525 -762.88085938 253.56640625 C-760.88714818 251.3887949 -758.94793863 249.19106425 -757.02246094 246.95483398 C-753.36727029 242.77264106 -749.52424848 238.81883934 -745.59179688 234.8984375 C-744.88820541 234.19388931 -744.18461395 233.48934113 -743.45970154 232.76344299 C-741.98274415 231.28581008 -740.5045432 229.80941918 -739.02514648 228.33422852 C-736.78123978 226.09567894 -734.54272358 223.85183902 -732.3046875 221.60742188 C-730.85904444 220.16243971 -729.41309117 218.71776783 -727.96679688 217.2734375 C-727.30821182 216.61282822 -726.64962677 215.95221893 -725.97108459 215.27159119 C-721.54518609 210.86757728 -716.94771948 206.72062137 -712.21289062 202.65234375 C-711.12981518 201.7030129 -710.04759641 200.75270238 -708.96679688 199.80078125 C-700.02208155 191.99868476 -690.71339312 184.7618694 -681.21289062 177.65234375 C-680.44251465 177.07162109 -679.67213867 176.49089844 -678.87841797 175.89257812 C-667.94856964 167.65976378 -656.86476169 159.83115088 -645.21289062 152.65234375 C-644.40577637 152.15412109 -643.59866211 151.65589844 -642.76708984 151.14257812 C-580.04706641 112.68930169 -508.84011411 87.81600223 -435.21289062 82.65234375 C-433.99102051 82.56621826 -432.76915039 82.48009277 -431.51025391 82.39135742 C-420.99089181 81.69070967 -410.50402681 81.45028882 -399.96289062 81.46484375 C-399.14207001 81.465448 -398.32124939 81.46605225 -397.47555542 81.4666748 C-325.73694973 81.60856184 -254.33335673 97.57377889 -189.21289062 127.65234375 C-188.61968018 127.925625 -188.02646973 128.19890625 -187.4152832 128.48046875 C-155.36855127 143.26668181 -124.66325849 160.70613457 -96.21289062 181.65234375 C-95.51695801 182.1642627 -94.82102539 182.67618164 -94.10400391 183.20361328 C-86.0029061 189.18365601 -78.01546377 195.28606517 -70.21289062 201.65234375 C-69.32214844 202.3690625 -68.43140625 203.08578125 -67.51367188 203.82421875 C-62.13335023 208.17650125 -56.90265179 212.64699291 -51.79492188 217.31640625 C-49.68630409 219.22405138 -47.55743258 221.09900398 -45.41210938 222.96484375 C-32.91444306 233.88224473 -21.22261652 245.51373279 -9.99072266 257.72167969 C-8.36269717 259.48965903 -6.72544914 261.24841405 -5.08398438 263.00390625 C0.81869419 269.34017725 6.37620375 275.89317616 11.78710938 282.65234375 C12.72115841 283.79496359 13.65610031 284.93685394 14.59179688 286.078125 C22.11263096 295.29729163 29.0734671 304.83209837 35.78710938 314.65234375 C36.29806152 315.3995166 36.80901367 316.14668945 37.33544922 316.91650391 C50.97380012 336.94422334 63.2048086 357.78770902 73.78515625 379.59521484 C74.81023479 381.69982297 75.85319789 383.79499241 76.89648438 385.890625 C102.77849796 438.50561526 116.13844498 495.58468775 121.78710938 553.65234375 C121.87476563 554.55178711 121.96242188 555.45123047 122.05273438 556.37792969 C122.51572471 561.47304926 122.70900046 566.54025007 122.78710938 571.65234375 C122.80757324 572.89467773 122.82803711 574.13701172 122.84912109 575.41699219 C123.45998869 617.11560923 120.03256302 658.14194575 109.78710938 698.65234375 C109.52704102 699.68439941 109.26697266 700.71645508 108.99902344 701.77978516 C102.83016216 725.83230366 94.60361726 749.29096029 83.78710938 771.65234375 C83.44437988 772.36277832 83.10165039 773.07321289 82.74853516 773.80517578 C80.79876658 777.82138172 78.79942117 781.80933754 76.75341797 785.77734375 C76.11697049 787.01228984 75.48437907 788.24923203 74.85595703 789.48828125 C63.28252357 812.28054745 48.65615863 833.47060225 31.78710938 852.65234375 C31.15289063 853.38582031 30.51867187 854.11929688 29.86523438 854.875 C28.18558342 856.81276246 26.489604 858.73463536 24.78710938 860.65234375 C24.10261719 861.42964844 23.418125 862.20695313 22.71289062 863.0078125 C14.92588118 871.77329433 6.7964321 880.13732093 -2.21289062 887.65234375 C-3.02040771 888.33055176 -3.02040771 888.33055176 -3.84423828 889.02246094 C-32.58416715 913.08129414 -64.85080413 931.77187875 -98.21289062 948.65234375 C-99.05722656 949.08256836 -99.9015625 949.51279297 -100.77148438 949.95605469 C-186.97956193 993.57080483 -290.75170847 1007.839598 -383.47503662 977.54083252 C-397.07607078 973.03043726 -410.2535212 967.76076524 -423.21289062 961.65234375 C-424.07027832 961.25047852 -424.92766602 960.84861328 -425.81103516 960.43457031 C-468.7300696 940.13248465 -513.05218041 909.94994728 -542.94726562 872.4765625 C-545.2307487 869.63008274 -547.59127983 866.8630983 -549.96289062 864.08984375 C-572.68073356 836.77225209 -589.8800557 805.89146021 -602.21289062 772.65234375 C-602.51565918 771.83668945 -602.81842773 771.02103516 -603.13037109 770.18066406 C-630.98708732 693.84965024 -628.02044809 602.02778687 -593.88085938 528.28515625 C-574.44290825 486.77709075 -548.39757016 447.58970059 -513.21289062 417.65234375 C-512.27832031 416.82992188 -511.34375 416.0075 -510.38085938 415.16015625 C-473.83324634 383.24112535 -429.82399577 360.72766675 -383.21289062 347.65234375 C-383.21289062 347.32234375 -383.21289062 346.99234375 -383.21289062 346.65234375 C-392.23917915 347.19312763 -400.97028671 348.53425431 -409.83789062 350.27734375 C-410.50896851 350.40894897 -411.18004639 350.5405542 -411.87145996 350.67614746 C-484.15706941 364.9457912 -553.65207219 401.78930184 -602.09570312 458.19921875 C-603.71976404 460.08097199 -605.36033523 461.94082087 -607.01757812 463.79296875 C-626.92288085 486.1786442 -643.47079694 511.09451717 -657.91210938 537.29736328 C-659.08066248 539.41295322 -660.26911523 541.51577912 -661.46289062 543.6171875 C-700.7356036 613.93105282 -716.8765543 698.12475799 -700.37304688 904.26171875 C-683.56812849 962.70963605 -653.60267198 1018.10771042 -613.21289062 1063.65234375 C-612.02494885 1065.02696209 -610.83737792 1066.40190113 -609.65039062 1067.77734375 C-598.52894365 1080.3995161 -587.07471114 1092.77636985 -574.21289062 1103.65234375 C-573.25769531 1104.49667969 -572.3025 1105.34101562 -571.31835938 1106.2109375 C-509.34750235 1160.78131909 -430.78590526 1194.27506147 -282.27539062 1221.90234375 C-281.10153305 1222.02710587 -281.10153305 1222.02710587 -279.90396118 1222.15438843 C-263.6151885 1223.86452795 -247.40176334 1224.80770905 -231.02539062 1224.85546875 C-229.52445958 1224.86245285 -228.0235288 1224.86949376 -226.52259827 1224.87658691 C-221.75269192 1224.89585046 -216.98283164 1224.9007634 -212.21289062 1224.90234375 C-211.39956646 1224.90293289 -210.58624229 1224.90352203 -209.74827194 1224.90412903 C-184.85378658 1224.91685088 -160.13709042 1224.52847706 -135.35943604 1221.88018799 C-133.19074485 1221.64999309 -131.02116561 1221.43092189 -128.85107422 1221.21435547 C-52.21866462 1213.4944954 24.69577284 1195.42171283 135.78710938 1138.65234375 C136.4487207 1138.22791992 137.11033203 1137.80349609 137.79199219 1137.36621094 C142.17561457 1134.53571898 146.49330835 1131.61692354 150.78710938 1128.65234375 C151.43147949 1128.20987305 152.07584961 1127.76740234 152.73974609 1127.31152344 C168.57186525 1116.40845278 183.82006585 1104.70972412 198.78710938 1092.65234375 C199.78742187 1091.84925781 200.78773438 1091.04617188 201.81835938 1090.21875 C207.17207727 1085.87308975 212.36866895 1081.40046505 217.46679688 1076.7578125 C219.48865121 1074.9231669 221.5338946 1073.12465589 223.59960938 1071.33984375 C232.93322107 1063.17293351 241.87904689 1054.6573779 250.66210938 1045.90234375 C251.4585083 1045.11053711 252.25490723 1044.31873047 253.07543945 1043.50292969 C257.30701151 1039.26026744 261.37747341 1034.93697747 265.28564453 1030.39453125 C267.15418452 1028.22641721 269.09522764 1026.12977476 271.03710938 1024.02734375 C276.07031303 1018.44243986 280.66378217 1012.56368256 285.25537109 1006.61669922 C286.84160929 1004.58245113 288.4539636 1002.57131254 290.07226562 1000.5625 C351.12252455 924.28661066 373.32511602 833.968811 370.05859375 669.08905029 C361.30320202 590.50507909 338.34712062 515.08377687 277.78710938 399.65234375 C277.2342627 398.73775391 276.68141602 397.82316406 276.11181641 396.88085938 C257.6795075 366.49377341 237.48646224 336.86031397 214.87304688 309.421875 C211.92431263 305.84021929 209.06873766 302.19220913 206.22460938 298.52734375 C201.11588602 291.97287762 195.74209359 285.67159557 190.29443359 279.39794922 C188.80275615 277.670464 187.32590412 275.9314416 185.85351562 274.1875 C179.45622528 266.62397043 172.82707941 259.32601459 166.03320312 252.1171875 C163.35896263 249.2762411 160.74767016 246.38704174 158.16210938 243.46484375 C154.29466282 239.12839715 150.21247424 235.0466018 146.08081055 230.96533203 C143.43386328 228.33905416 140.87915156 225.68944258 138.47460938 222.83984375 C131.05374655 214.13952182 122.68093916 205.95020911 113.93945312 198.5859375 C110.76356738 195.73282781 107.78971638 192.68593377 104.78710938 189.65234375 C100.61308198 185.43952631 96.43571146 181.32449262 91.90820312 177.48828125 C88.97012303 174.94519166 86.13424918 172.29637549 83.28710938 169.65234375 C78.52091027 165.23734538 73.72432017 160.87650216 68.78710938 156.65234375 C67.82417969 155.8221875 66.86125 154.99203125 65.86914062 154.13671875 C59.00369441 148.24757077 51.97904893 142.61452677 44.76464844 137.15722656 C42.48914985 135.42560023 40.2279778 133.67606037 37.96679688 131.92578125 C27.36507573 123.74291865 16.61986171 115.89362901 5.48242188 108.45703125 C2.47126112 106.44086274 -0.52689377 104.40604485 -3.52539062 102.37109375 C-18.4515935 92.26970662 -33.61943952 82.70191293 -49.21289062 73.65234375 C-50.17211426 73.09160156 -51.13133789 72.53085938 -52.11962891 71.953125 C-90.29847587 49.72584718 -130.48628726 31.15291475 -172.21289062 16.65234375 C-173.45425781 16.21857422 -174.695625 15.78480469 -175.97460938 15.33789062 C-255.85230472 -12.3890081 -343.48699613 -25.45948394 -494.21289062 2.65234375 Z M-409.21289062 451.65234375 C-409.87627441 452.00409668 -410.5396582 452.35584961 -411.22314453 452.71826172 C-439.2985162 467.6662641 -465.04359302 489.32950399 -483.95849609 514.95800781 C-485.17223175 516.59742499 -486.41084716 518.21509663 -487.65429688 519.83203125 C-525.16499798 569.47212155 -539.58900129 636.38329221 -531.18164062 697.4453125 C-523.95924527 745.33844862 -502.68159397 786.9448235 -469.21289062 821.65234375 C-468.64924805 822.23790039 -468.08560547 822.82345703 -467.50488281 823.42675781 C-460.95365603 830.19503241 -454.32991359 836.65607597 -446.92773438 842.50390625 C-444.47158406 844.44762233 -442.07393905 846.44726513 -439.6875 848.47558594 C-407.49000454 875.74322345 -364.85766433 891.10158068 -323.21289062 895.65234375 C-322.27058594 895.76320313 -321.32828125 895.8740625 -320.35742188 895.98828125 C-258.63860092 902.02156097 -196.41491621 882.75787113 -148.54101562 843.609375 C-144.32413444 840.0646477 -140.21034303 836.44321883 -136.21289062 832.65234375 C-135.2294165 831.71986816 -135.2294165 831.71986816 -134.22607422 830.76855469 C-123.44543042 820.46165321 -113.80334119 809.84906487 -105.21289062 797.65234375 C-104.76510254 797.02263672 -104.31731445 796.39292969 -103.85595703 795.74414062 C-67.49707875 744.23234436 -54.34255432 680.31413578 -64.63330078 618.3737793 C-75.6790684 556.97996982 -111.68425618 501.78776472 -162.69042969 466.09350586 C-196.12987967 443.03143674 -234.68385798 428.42044841 -275.21289062 424.65234375 C-276.92412109 424.48605469 -276.92412109 424.48605469 -278.66992188 424.31640625 C-323.67425762 420.51032528 -369.48450265 430.25394385 -409.21289062 451.65234375 Z " fill="#FF671D" transform="translate(992.212890625,105.34765625)"/>
</svg>
